<?xml version="1.0" encoding="UTF-8" standalone="no"?>
<!-- Created with Inkscape (http://www.inkscape.org/) -->

<svg
   width="43.400677mm"
   height="30.191704mm"
   viewBox="0 0 43.400677 30.191704"
   version="1.1"
   id="svg5"
   xml:space="preserve"
   inkscape:version="1.2.2 (732a01da63, 2022-12-09)"
   sodipodi:docname="apple-touch-icon1.svg"
   xmlns:inkscape="http://www.inkscape.org/namespaces/inkscape"
   xmlns:sodipodi="http://sodipodi.sourceforge.net/DTD/sodipodi-0.dtd"
   xmlns="http://www.w3.org/2000/svg"
   xmlns:svg="http://www.w3.org/2000/svg"><sodipodi:namedview
     id="namedview7"
     pagecolor="#ffffff"
     bordercolor="#000000"
     borderopacity="0.25"
     inkscape:showpageshadow="2"
     inkscape:pageopacity="0.0"
     inkscape:pagecheckerboard="0"
     inkscape:deskcolor="#d1d1d1"
     inkscape:document-units="mm"
     showgrid="false"
     showguides="true"
     inkscape:zoom="1.3228492"
     inkscape:cx="368.9007"
     inkscape:cy="201.08112"
     inkscape:window-width="1366"
     inkscape:window-height="705"
     inkscape:window-x="-8"
     inkscape:window-y="-8"
     inkscape:window-maximized="1"
     inkscape:current-layer="g7278" /><defs
     id="defs2"><inkscape:path-effect
       effect="powerclip"
       id="path-effect1698"
       is_visible="true"
       lpeversion="1"
       inverse="true"
       flatten="false"
       hide_clip="false"
       message="Utilice la regla de relleno parimpar en el diálogo &lt;b&gt;Relleno y borde&lt;/b&gt; si el resultado no está aplanada después de convertir el recorte en trayectos." /><clipPath
       clipPathUnits="userSpaceOnUse"
       id="clipPath6789"><path
         id="lpe_path-effect6793"
         style="fill:#ffffff;fill-opacity:1;stroke-width:0.264583"
         class="powerclip"
         d="m 132.30777,20.202053 h 40 v 40 h -40 z m 31.60002,19.670837 a 11.5,11.5 0 0 0 -11.5,-11.5 11.5,11.5 0 0 0 -11.5,11.5 11.5,11.5 0 0 0 11.5,11.5 11.5,11.5 0 0 0 11.5,-11.5 z" /></clipPath><clipPath
       clipPathUnits="userSpaceOnUse"
       id="clipPath1694"><circle
         style="display:none;fill:#ffffff;fill-opacity:1;stroke-width:0.299225"
         id="circle1696"
         cx="62.803192"
         cy="75.574707"
         r="11.5"
         d="m 74.303192,75.574707 a 11.5,11.5 0 0 1 -11.5,11.5 11.5,11.5 0 0 1 -11.5,-11.5 11.5,11.5 0 0 1 11.5,-11.5 11.5,11.5 0 0 1 11.5,11.5 z" /><path
         id="lpe_path-effect1698"
         style="fill:#ffffff;fill-opacity:1;stroke-width:0.299225"
         class="powerclip"
         d="m 42.90321,55.603851 h 40 v 40 h -40 z m 31.399982,19.970856 a 11.5,11.5 0 0 0 -11.5,-11.5 11.5,11.5 0 0 0 -11.5,11.5 11.5,11.5 0 0 0 11.5,11.5 11.5,11.5 0 0 0 11.5,-11.5 z" /></clipPath></defs><g
     inkscape:label="Capa 1"
     inkscape:groupmode="layer"
     id="layer1"
     transform="translate(-22.501912,-19.010032)"><g
       id="g7278"
       transform="translate(6.2003154,-38.001939)"><g
         id="g5241"
         inkscape:export-filename="g5241.svg"
         inkscape:export-xdpi="468.1955"
         inkscape:export-ydpi="468.1955"><path
           id="path3053"
           clip-path="url(#clipPath6789)"
           style="fill:#c2ef7e;fill-opacity:1;stroke-width:0.264583"
           d="m 152.77645,25.210349 c 0.003,0.291975 0.009,0.583958 0.0114,0.875916 0.014,2.078544 0.0145,4.157212 0.0165,6.235795 0.002,2.733897 0.003,5.468185 0.003,8.202083 3e-4,2.826595 4.6e-4,5.653012 5.1e-4,8.479586 4e-5,2.0598 1e-5,4.119685 0,6.179468 a 15,15 0 0 0 14.4999,-14.980998 15,15 0 0 0 -14.53142,-14.99185 z m -5.33301,3.809587 c -0.43172,0.585344 -0.8322,1.194911 -1.24333,1.794206 -0.30988,0.458338 -0.6214,0.915303 -0.93793,1.368909 0.0466,-0.02943 0.094,-0.05761 0.14005,-0.08785 0.0696,-0.09887 0.13958,-0.197513 0.20877,-0.296623 0.49625,-0.761551 1.00725,-1.51154 1.51153,-2.267562 0.11059,-0.168236 0.21657,-0.339033 0.32091,-0.51108 z m 3.3538,0.09818 c -0.18874,0.277193 -0.38205,0.551321 -0.57774,0.823723 0.23065,0.178687 0.43925,0.472468 0.58085,0.895035 -0.001,-0.572928 -0.002,-1.145826 -0.003,-1.718758 z m -1.86706,2.437061 c -0.3111,0.348559 -0.63205,0.688302 -0.96067,1.020093 -0.3482,0.358078 -0.73176,0.674437 -1.13688,0.961698 -0.43874,0.614796 -0.89257,1.219223 -1.37408,1.800924 -0.65278,0.759998 -1.25381,1.560857 -1.81074,2.392619 0.18298,1.236058 0.38253,2.502619 0.54932,3.58531 0.006,0.03749 0.007,0.04122 0.0124,0.07751 0.4479,0.01061 0.7757,0.447677 0.61857,1.323433 0.85084,0.300795 0.9752,1.121458 0.37362,1.574581 0.0924,0.210177 0.13939,0.442248 0.21808,0.658875 -0.0434,0.278681 -0.0423,0.56761 -0.13023,0.835608 -0.0747,0.227795 -0.19745,0.432316 -0.35088,0.617016 0.0602,0.471201 -0.0101,0.843316 -0.15451,1.108977 0.23995,0.129689 0.45838,0.303564 0.65164,0.538985 0.0363,-0.583321 0.0396,-1.169271 -0.008,-1.757516 -0.0799,-1.017798 0.40985,-1.554878 0.92501,-1.565796 0.48394,-0.01026 0.99026,0.444028 1.06815,1.399915 0.006,0.07813 0.0107,0.156032 0.0155,0.234094 0.37962,0.01515 0.75232,0.316402 0.90123,0.902788 0.36105,0.09604 0.70976,0.473565 0.86507,1.18494 0.11822,0.541432 0.18234,1.092404 0.22892,1.644861 0.0747,-0.855712 0.1438,-1.711543 0.17519,-2.570386 0.0361,-0.989324 0.55234,-1.484121 1.05161,-1.484147 0.0498,-3e-6 0.0994,0.0051 0.14831,0.01499 -9e-5,-1.843436 -3.1e-4,-3.686943 -5.1e-4,-5.530412 -2.7e-4,-0.741738 -9.2e-4,-1.48346 -0.001,-2.225187 -0.25617,-0.203773 -0.47133,-0.564123 -0.56534,-1.096057 -0.0479,-0.270804 -0.0952,-0.541552 -0.14314,-0.812353 -0.35066,-1.620227 -0.67514,-3.250351 -1.16685,-4.835364 z m -7.28586,10.169405 c -0.0941,0.259695 -0.18784,0.519544 -0.27854,0.780314 -0.003,0.03237 -0.006,0.06478 -0.01,0.09715 h 0.42065 c -0.0408,-0.293043 -0.0854,-0.585706 -0.13229,-0.877466 z m 0.77462,9.563757 c -0.0194,0.03487 -0.0387,0.0697 -0.0584,0.104387 a 15,15 0 0 0 0.79737,0.665592 c 0.0226,-0.06257 0.0527,-0.126857 0.0868,-0.191719 -0.26354,-0.158833 -0.52098,-0.327267 -0.75964,-0.52555 -0.0224,-0.01727 -0.0439,-0.03533 -0.0662,-0.05271 z m 3.98839,2.492355 c -0.0147,0.05411 -0.0296,0.108205 -0.0444,0.162264 a 15,15 0 0 0 0.0444,0.02067 z m 4.40077,0.636653 c -0.0594,0.225754 -0.12286,0.450505 -0.19017,0.674378 a 15,15 0 0 0 0.19017,0.02532 z"
           transform="translate(-107.60549,31.801622)" /><path
           style="fill:#313131;fill-opacity:1;stroke-width:0.264583"
           id="path231"
           clip-path="url(#clipPath1694)"
           inkscape:path-effect="#path-effect1698"
           sodipodi:type="arc"
           sodipodi:cx="62.90321"
           sodipodi:cy="75.603851"
           sodipodi:rx="15"
           sodipodi:ry="15"
           d="m 77.90321,75.603851 a 15,15 0 0 1 -15,15 15,15 0 0 1 -15,-15 15,15 0 0 1 15,-15 15,15 0 0 1 15,15 z"
           transform="translate(-31.601612,-3.4001734)" /><rect
           style="fill:#313131;fill-opacity:1;stroke-width:0.264583"
           id="rect1333"
           width="14.200725"
           height="3.5"
           x="30.20154"
           y="75.403847" /><rect
           style="fill:#c2ef7e;fill-opacity:1;stroke-width:0.264583"
           id="rect2999"
           width="19.601"
           height="3.5"
           x="30.201548"
           y="70.003571" /></g></g></g></svg>
